<?xml version="1.0" encoding="UTF-8"?>
<svg id="Layer_2" data-name="Layer 2" xmlns="http://www.w3.org/2000/svg" viewBox="0 0 144.31 140.85">
  <defs>
    <style>
      .cls-1 {
        fill: #131316;
      }
    </style>
  </defs>
  <g id="Layer_1-2" data-name="Layer 1">
    <path id="fQXawG" class="cls-1" d="M82.17,49.78L117.13,15.9c1.7-.76,4.49,2.11,5.77,3.24,1.53,1.35,6.17,5.89,6.92,7.49.38.79.25,1.28-.24,1.99l-33.89,32.99-.45.89h47.63c.1,0,.9.82.98,1.08.62,1.93.62,13.02,0,14.94-.08.25-.88,1.08-.98,1.08h-47.57c-.14,0-.38.25-.6.01v.57s33.77,33.16,33.77,33.16c.15.37.25.62.14,1.03-.29,1.15-5.77,6.58-7,7.67-1.39,1.23-4.03,4.06-5.82,3.05l-24.22-23.62c-9.24-10.64,1.77-30.89-8.16-40.72-9.81-9.72-30.87.66-41.49-7.66l-24.63-24.09c-.17-.25-.32-.52-.32-.83,0-.76,2.82-3.87,3.54-4.64,1.18-1.27,6.43-6.29,7.73-6.68.42-.12.79-.19,1.21,0l34.48,33.2V1.98c0-.49,1.17-1.44,1.74-1.56.96-.21,3.9-.33,5.09-.37,2.66-.1,6.83-.06,9.42.33.68.1,1.99.99,1.99,1.61v47.79ZM63.94,139.16c0,.34,1.48,1.21,1.99,1.29,2.91.43,7.35.47,10.32.32.95-.05,3.71-.22,4.41-.43.66-.2,1.29-.88,1.44-1.53l.08-68.06c-.39-4.33-3.53-7.63-8.05-8.26l-72.29.02c-1.54.27-1.59,2.59-1.69,3.89-.2,2.67-.21,6.91.02,9.57.06.74.42,3.63,1.36,3.63h49.3c.13,0,.37.26.58.01v.59s-32.8,33.82-32.8,33.82c-.22.37-.23.7-.1,1.11.41,1.31,5.53,6.65,6.8,7.84,1.35,1.25,3.91,4.15,5.64,3.12l32.99-33.75v46.84Z"/>
  </g>
</svg>